<svg width="70" height="78" viewBox="0 0 70 78" fill="none" xmlns="http://www.w3.org/2000/svg">
<path d="M4.3824 64.5078L6.02995 71.7136L8.00465 64.5078H9.28938L11.2641 71.7136L12.9116 64.5078H14.2083L11.9124 73.3659H10.6693L8.65296 66.0213L6.62474 73.3659H5.38164L3.09766 64.5078H4.3824Z" fill="white"/>
<path d="M17.9699 66.763C18.422 66.763 18.8601 66.8715 19.2844 67.0886C19.7087 67.3017 20.0319 67.5791 20.2539 67.9208C20.468 68.2464 20.6108 68.6263 20.6822 69.0604C20.7456 69.3579 20.7773 69.8323 20.7773 70.4835H16.1083C16.1281 71.1388 16.2807 71.6654 16.5662 72.0634C16.8517 72.4574 17.2939 72.6543 17.8926 72.6543C18.4517 72.6543 18.8978 72.4674 19.2309 72.0935C19.4212 71.8765 19.556 71.6252 19.6353 71.3398H20.6881C20.6604 71.577 20.5672 71.8423 20.4086 72.1357C20.2539 72.4252 20.0794 72.6624 19.8852 72.8473C19.56 73.1689 19.1575 73.386 18.6777 73.4985C18.42 73.5629 18.1285 73.595 17.8034 73.595C17.0103 73.595 16.3382 73.3036 15.7871 72.7207C15.2359 72.1337 14.9603 71.3137 14.9603 70.2604C14.9603 69.2232 15.2379 68.381 15.793 67.7338C16.3482 67.0866 17.0738 66.763 17.9699 66.763ZM19.677 69.6212C19.6334 69.1509 19.5322 68.775 19.3736 68.4936C19.0802 67.971 18.5905 67.7097 17.9045 67.7097C17.4128 67.7097 17.0004 67.8906 16.6674 68.2524C16.3343 68.6102 16.1578 69.0665 16.138 69.6212H19.677Z" fill="white"/>
<path d="M22.3799 64.4776H23.4208V67.6916C23.6548 67.3821 23.9343 67.1469 24.2594 66.9861C24.5846 66.8213 24.9375 66.7389 25.3182 66.7389C26.1112 66.7389 26.7536 67.0162 27.2453 67.571C27.7409 68.1218 27.9888 68.9358 27.9888 70.0132C27.9888 71.0343 27.7449 71.8825 27.2572 72.5579C26.7694 73.2332 26.0934 73.5709 25.229 73.5709C24.7452 73.5709 24.3368 73.4523 24.0037 73.2151C23.8054 73.0744 23.5933 72.8493 23.3673 72.5398V73.3659H22.3799V64.4776ZM25.1635 72.6121C25.7425 72.6121 26.1747 72.379 26.4602 71.9126C26.7496 71.4463 26.8944 70.8313 26.8944 70.0674C26.8944 69.3881 26.7496 68.8253 26.4602 68.379C26.1747 67.9328 25.7524 67.7097 25.1933 67.7097C24.7055 67.7097 24.2773 67.8926 23.9085 68.2584C23.5437 68.6243 23.3613 69.2273 23.3613 70.0674C23.3613 70.6745 23.4367 71.1669 23.5873 71.5448C23.8689 72.2564 24.3943 72.6121 25.1635 72.6121Z" fill="white"/>
<path d="M37.3262 69.7358L35.9998 65.8223L34.5902 69.7358H37.3262ZM35.3812 64.5078H36.7195L39.8897 73.3659H38.5931L37.7069 70.7127H34.2512L33.3054 73.3659H32.0921L35.3812 64.5078Z" fill="white"/>
<path d="M41.4685 66.9077L42.6938 71.9971L43.9369 66.9077H45.1384L46.3874 71.9669L47.69 66.9077H48.7606L46.9108 73.3659H45.7986L44.5019 68.367L43.2469 73.3659H42.1347L40.2968 66.9077H41.4685Z" fill="white"/>
<path d="M50.9639 71.6473C50.9639 71.9609 51.077 72.2081 51.303 72.389C51.529 72.5699 51.7966 72.6604 52.1059 72.6604C52.4826 72.6604 52.8474 72.5719 53.2003 72.395C53.7951 72.1016 54.0925 71.6212 54.0925 70.9539V70.0795C53.9617 70.1639 53.7931 70.2343 53.587 70.2906C53.3808 70.3468 53.1785 70.387 52.9803 70.4112L52.332 70.4956C51.9434 70.5478 51.6519 70.6302 51.4576 70.7428C51.1285 70.9318 50.9639 71.2333 50.9639 71.6473ZM53.5572 69.4524C53.8031 69.4202 53.9676 69.3157 54.0509 69.1388C54.0985 69.0423 54.1223 68.9036 54.1223 68.7227C54.1223 68.3529 53.9914 68.0856 53.7297 67.9208C53.472 67.7519 53.1012 67.6675 52.6175 67.6675C52.0584 67.6675 51.6618 67.8203 51.4279 68.1258C51.297 68.2946 51.2118 68.5459 51.1721 68.8795H50.1729C50.1927 68.0836 50.4465 67.5308 50.9342 67.2213C51.4259 66.9077 51.9949 66.7509 52.6412 66.7509C53.3907 66.7509 53.9993 66.8956 54.4672 67.1851C54.9312 67.4745 55.1631 67.9248 55.1631 68.5358V72.2564C55.1631 72.3689 55.1849 72.4594 55.2286 72.5277C55.2761 72.596 55.3733 72.6302 55.52 72.6302C55.5676 72.6302 55.6211 72.6282 55.6806 72.6242C55.7401 72.6161 55.8035 72.6061 55.8709 72.594V73.396C55.7044 73.4443 55.5775 73.4744 55.4903 73.4865C55.403 73.4985 55.2841 73.5046 55.1334 73.5046C54.7646 73.5046 54.497 73.3719 54.3304 73.1066C54.2432 72.9659 54.1817 72.7669 54.1461 72.5096C53.928 72.7991 53.6147 73.0503 53.2063 73.2634C52.7979 73.4764 52.3478 73.583 51.8561 73.583C51.2653 73.583 50.7815 73.4021 50.4048 73.0403C50.0321 72.6744 49.8457 72.2182 49.8457 71.6714C49.8457 71.0725 50.0301 70.6081 50.3989 70.2785C50.7677 69.9489 51.2514 69.7458 51.8502 69.6695L53.5572 69.4524Z" fill="white"/>
<path d="M57.3189 66.9077H58.336V68.0233C58.4192 67.8062 58.6235 67.5429 58.9486 67.2333C59.2738 66.9198 59.6485 66.763 60.0727 66.763C60.0926 66.763 60.1263 66.765 60.1739 66.769C60.2214 66.773 60.3027 66.7811 60.4177 66.7931V67.9388C60.3543 67.9268 60.2948 67.9187 60.2393 67.9147C60.1877 67.9107 60.1302 67.9087 60.0668 67.9087C59.5275 67.9087 59.1132 68.0856 58.8237 68.4393C58.5342 68.7891 58.3895 69.1931 58.3895 69.6514V73.3659H57.3189V66.9077Z" fill="white"/>
<path d="M62.3891 70.2122C62.3891 70.9036 62.5338 71.4825 62.8233 71.9488C63.1127 72.4151 63.5767 72.6483 64.2151 72.6483C64.7107 72.6483 65.1172 72.4332 65.4344 72.0031C65.7556 71.5689 65.9162 70.9478 65.9162 70.1398C65.9162 69.3237 65.7516 68.7207 65.4225 68.3308C65.0934 67.9368 64.6869 67.7399 64.2032 67.7399C63.6639 67.7399 63.2257 67.9489 62.8887 68.367C62.5556 68.7851 62.3891 69.4001 62.3891 70.2122ZM64.001 66.7931C64.4887 66.7931 64.8971 66.8977 65.2262 67.1067C65.4165 67.2273 65.6327 67.4383 65.8745 67.7399V64.4776H66.9035V73.3659H65.94V72.4674C65.6902 72.8654 65.3947 73.1528 65.0537 73.3297C64.7127 73.5066 64.3221 73.595 63.882 73.595C63.1722 73.595 62.5576 73.2935 62.0382 72.6905C61.5187 72.0835 61.259 71.2775 61.259 70.2725C61.259 69.3318 61.4949 68.5177 61.9668 67.8303C62.4426 67.1389 63.1207 66.7931 64.001 66.7931Z" fill="white"/>
<path d="M12.9609 3.89984V42.299L52.6217 49.2234L59.2635 11.9821L12.9609 3.89984ZM46.8635 38.2719L46.0132 34.0764L41.4453 33.2807L43.1638 30.5211L45.449 30.919L44.2227 24.5685L36.7873 36.5146L34.1568 36.0556L31.6422 22.9107L24.5186 34.3748L21.937 33.926L18.4383 15.6241L21.6304 16.1801L24.0445 29.5137L31.1939 17.8506L33.8528 18.3148L36.2977 31.7147L43.4601 19.9905L46.5981 20.5388L49.8727 38.7973L46.866 38.2719H46.8635Z" fill="white"/>
</svg>
